<svg id="ejXTq6HRPLW1" xmlns="http://www.w3.org/2000/svg" xmlns:xlink="http://www.w3.org/1999/xlink" viewBox="0 0 120 50" shape-rendering="geometricPrecision" text-rendering="geometricPrecision"><ellipse rx="2.5" ry="2.5" transform="translate(46.002436 2.5)" opacity="0.5" fill="#038483" stroke-width="0"/><ellipse rx="2.5" ry="2.5" transform="translate(46.002436 16.676828)" opacity="0.5" fill="#038483" stroke-width="0"/><ellipse rx="2.5" ry="2.5" transform="translate(46.002436 32.328044)" opacity="0.5" fill="#038483" stroke-width="0"/><ellipse rx="2.5" ry="2.5" transform="translate(46.002436 47.5)" opacity="0.5" fill="#038483" stroke-width="0"/><ellipse rx="2.5" ry="2.5" transform="translate(60 2.5)" opacity="0.5" fill="#038483" stroke-width="0"/><ellipse rx="2.5" ry="2.5" transform="translate(60 16.676828)" opacity="0.5" fill="#038483" stroke-width="0"/><ellipse rx="2.5" ry="2.5" transform="translate(60 32.328044)" opacity="0.5" fill="#038483" stroke-width="0"/><ellipse rx="2.5" ry="2.5" transform="translate(60 47.5)" opacity="0.5" fill="#038483" stroke-width="0"/><ellipse rx="2.5" ry="2.5" transform="translate(72.836582 2.5)" opacity="0.5" fill="#038483" stroke-width="0"/><ellipse rx="2.5" ry="2.5" transform="translate(72.836582 16.676828)" opacity="0.5" fill="#038483" stroke-width="0"/><ellipse rx="2.5" ry="2.5" transform="translate(72.836582 32.328044)" opacity="0.5" fill="#038483" stroke-width="0"/><ellipse rx="2.5" ry="2.5" transform="translate(72.836582 47.5)" opacity="0.5" fill="#038483" stroke-width="0"/><ellipse rx="2.5" ry="2.5" transform="translate(86.856092 2.5)" opacity="0.5" fill="#038483" stroke-width="0"/><ellipse rx="2.5" ry="2.5" transform="translate(86.856092 16.676828)" opacity="0.5" fill="#038483" stroke-width="0"/><ellipse rx="2.5" ry="2.5" transform="translate(86.856092 32.328044)" opacity="0.5" fill="#038483" stroke-width="0"/><ellipse rx="2.5" ry="2.5" transform="translate(86.856092 47.5)" opacity="0.5" fill="#038483" stroke-width="0"/><ellipse rx="2.5" ry="2.5" transform="translate(102.358528 2.5)" opacity="0.5" fill="#038483" stroke-width="0"/><ellipse rx="2.5" ry="2.5" transform="translate(102.358528 16.676828)" opacity="0.5" fill="#038483" stroke-width="0"/><ellipse rx="2.5" ry="2.5" transform="translate(102.358528 32.328044)" opacity="0.5" fill="#038483" stroke-width="0"/><ellipse rx="2.5" ry="2.5" transform="translate(102.358528 47.5)" opacity="0.5" fill="#038483" stroke-width="0"/><ellipse rx="2.5" ry="2.5" transform="translate(117.5 2.5)" opacity="0.5" fill="#038483" stroke-width="0"/><ellipse rx="2.5" ry="2.5" transform="translate(117.5 16.676828)" opacity="0.5" fill="#038483" stroke-width="0"/><ellipse rx="2.5" ry="2.5" transform="translate(117.5 32.328044)" opacity="0.5" fill="#038483" stroke-width="0"/><ellipse rx="2.5" ry="2.5" transform="translate(117.5 47.5)" opacity="0.5" fill="#038483" stroke-width="0"/><ellipse rx="2.5" ry="2.5" transform="translate(17.036586 2.5)" opacity="0.5" fill="#038483" stroke-width="0"/><ellipse rx="2.5" ry="2.5" transform="translate(17.036586 16.676828)" opacity="0.5" fill="#038483" stroke-width="0"/><ellipse rx="2.5" ry="2.5" transform="translate(17.036586 32.328044)" opacity="0.5" fill="#038483" stroke-width="0"/><ellipse rx="2.5" ry="2.5" transform="translate(17.036586 47.5)" opacity="0.5" fill="#038483" stroke-width="0"/><ellipse rx="2.5" ry="2.5" transform="translate(2.5 2.5)" opacity="0.5" fill="#038483" stroke-width="0"/><ellipse rx="2.5" ry="2.5" transform="translate(2.5 16.676828)" opacity="0.5" fill="#038483" stroke-width="0"/><ellipse rx="2.5" ry="2.5" transform="translate(2.5 32.328044)" opacity="0.5" fill="#038483" stroke-width="0"/><ellipse rx="2.5" ry="2.5" transform="translate(2.5 47.5)" opacity="0.5" fill="#038483" stroke-width="0"/><ellipse rx="2.5" ry="2.5" transform="translate(31.704877 2.5)" opacity="0.5" fill="#038483" stroke-width="0"/><ellipse rx="2.5" ry="2.5" transform="translate(31.704877 16.676828)" opacity="0.5" fill="#038483" stroke-width="0"/><ellipse rx="2.5" ry="2.5" transform="translate(31.704877 32.328044)" opacity="0.5" fill="#038483" stroke-width="0"/><ellipse rx="2.5" ry="2.5" transform="translate(31.704877 47.5)" opacity="0.5" fill="#038483" stroke-width="0"/></svg>