<svg id="e4byT3Sw6ZO1" xmlns="http://www.w3.org/2000/svg" xmlns:xlink="http://www.w3.org/1999/xlink" viewBox="0 0 120 50" shape-rendering="geometricPrecision" text-rendering="geometricPrecision"><ellipse rx="3.5" ry="3.5" transform="translate(47.002436 3.5)" opacity="0.35" fill="#038483" stroke-width="0"/><ellipse rx="3.5" ry="3.5" transform="translate(47.002436 17.676828)" opacity="0.35" fill="#038483" stroke-width="0"/><ellipse rx="3.5" ry="3.5" transform="translate(47.002436 32.771947)" opacity="0.35" fill="#038483" stroke-width="0"/><ellipse rx="3.5" ry="3.5" transform="translate(47.002436 46.5)" opacity="0.35" fill="#038483" stroke-width="0"/><ellipse rx="3.5" ry="3.5" transform="translate(61 3.5)" opacity="0.35" fill="#038483" stroke-width="0"/><ellipse rx="3.5" ry="3.5" transform="translate(61 17.676828)" opacity="0.35" fill="#038483" stroke-width="0"/><ellipse rx="3.5" ry="3.5" transform="translate(61 32.771947)" opacity="0.35" fill="#038483" stroke-width="0"/><ellipse rx="3.5" ry="3.5" transform="translate(61 46.5)" opacity="0.35" fill="#038483" stroke-width="0"/><ellipse rx="3.5" ry="3.5" transform="translate(74.76341 3.5)" opacity="0.35" fill="#038483" stroke-width="0"/><ellipse rx="3.5" ry="3.5" transform="translate(74.76341 17.676828)" opacity="0.35" fill="#038483" stroke-width="0"/><ellipse rx="3.5" ry="3.5" transform="translate(74.76341 32.771947)" opacity="0.35" fill="#038483" stroke-width="0"/><ellipse rx="3.5" ry="3.5" transform="translate(74.76341 46.5)" opacity="0.35" fill="#038483" stroke-width="0"/><ellipse rx="3.5" ry="3.5" transform="translate(88.412189 3.5)" opacity="0.35" fill="#038483" stroke-width="0"/><ellipse rx="3.5" ry="3.5" transform="translate(88.412189 17.676828)" opacity="0.35" fill="#038483" stroke-width="0"/><ellipse rx="3.5" ry="3.5" transform="translate(88.412189 32.771947)" opacity="0.35" fill="#038483" stroke-width="0"/><ellipse rx="3.5" ry="3.5" transform="translate(88.412189 46.5)" opacity="0.35" fill="#038483" stroke-width="0"/><ellipse rx="3.5" ry="3.5" transform="translate(103.358528 3.5)" opacity="0.35" fill="#038483" stroke-width="0"/><ellipse rx="3.5" ry="3.5" transform="translate(103.358528 17.676828)" opacity="0.35" fill="#038483" stroke-width="0"/><ellipse rx="3.5" ry="3.5" transform="translate(103.358528 32.771947)" opacity="0.35" fill="#038483" stroke-width="0"/><ellipse rx="3.5" ry="3.5" transform="translate(103.358528 46.5)" opacity="0.35" fill="#038483" stroke-width="0"/><ellipse rx="3.5" ry="3.5" transform="translate(116.5 3.5)" opacity="0.35" fill="#038483" stroke-width="0"/><ellipse rx="3.5" ry="3.5" transform="translate(116.5 17.676828)" opacity="0.35" fill="#038483" stroke-width="0"/><ellipse rx="3.5" ry="3.5" transform="translate(116.5 32.771947)" opacity="0.35" fill="#038483" stroke-width="0"/><ellipse rx="3.5" ry="3.5" transform="translate(116.5 46.5)" opacity="0.35" fill="#038483" stroke-width="0"/><ellipse rx="3.5" ry="3.5" transform="translate(18.036586 3.5)" opacity="0.35" fill="#038483" stroke-width="0"/><ellipse rx="3.5" ry="3.5" transform="translate(18.036586 17.676828)" opacity="0.35" fill="#038483" stroke-width="0"/><ellipse rx="3.5" ry="3.5" transform="translate(18.036586 32.771947)" opacity="0.35" fill="#038483" stroke-width="0"/><ellipse rx="3.5" ry="3.5" transform="translate(18.036586 46.5)" opacity="0.35" fill="#038483" stroke-width="0"/><ellipse rx="3.5" ry="3.5" transform="translate(3.5 3.5)" opacity="0.35" fill="#038483" stroke-width="0"/><ellipse rx="3.5" ry="3.5" transform="translate(3.5 17.676828)" opacity="0.35" fill="#038483" stroke-width="0"/><ellipse rx="3.5" ry="3.5" transform="translate(3.5 32.771947)" opacity="0.35" fill="#038483" stroke-width="0"/><ellipse rx="3.5" ry="3.5" transform="translate(3.5 46.5)" opacity="0.35" fill="#038483" stroke-width="0"/><ellipse rx="3.5" ry="3.5" transform="translate(32.704877 3.5)" opacity="0.35" fill="#038483" stroke-width="0"/><ellipse rx="3.5" ry="3.5" transform="translate(32.704877 17.676828)" opacity="0.35" fill="#038483" stroke-width="0"/><ellipse rx="3.5" ry="3.5" transform="translate(32.704877 32.771947)" opacity="0.35" fill="#038483" stroke-width="0"/><ellipse rx="3.5" ry="3.5" transform="translate(32.704877 46.5)" opacity="0.35" fill="#038483" stroke-width="0"/></svg>